PathFileType	4	(X/Y/Z)	C:/Users/beibeiliu/ov580/test_trc\sequence.14_training_dense_left.trc
DataRate	CameraRate	NumFrames	NumMarkers	Units	OrigDataRate	OrigDataStartFrame	OrigNumFrames
120	120	12	19	mm	120	49	73
Frame#	Time	ThumbCMC			ThumbMCP			ThumbIP			ThumbTip			IndexMCP			IndexPIP			IndexTip			MiddleMCP			MiddlePIP			MiddleTip			RingMCP			RingPIP			RingTip			PinkyMCP			PinkyPIP			PinkyTip			BackHand1			BackHand2			BackHand3	
		X0	Y0	Z0	X1	Y1	Z1	X2	Y2	Z2	X3	Y3	Z3	X4	Y4	Z4	X5	Y5	Z5	X6	Y6	Z6	X7	Y7	Z7	X8	Y8	Z8	X9	Y9	Z9	X10	Y10	Z10	X11	Y11	Z11	X12	Y12	Z12	X13	Y13	Z13	X14	Y14	Z14	X15	Y15	Z15	X16	Y16	Z16	X17	Y17	Z17	X18	Y18	Z18	
48	0.4	-199.751	86.9932	43.095	-177.55	110.404	42.6291	-149.333	114.059	44.9887	-134.042	96.1536	57.3904	-142.056	109.734	13.6681	-126.407	124.433	11.7888	-110.346	140.737	9.31982	-122.928	92.4572	27.5056	-103.073	109.072	25.4171	-81.1556	122.558	25.3294	-118.945	79.9305	42.4993	-96.6173	88.3979	47.6263	-78.9011	103.839	47.2935	-116.212	62.4158	63.4591	-101.026	70.3538	67.6797	-87.523	73.1596	70.165	-158.214	50.1672	41.8864	-177.503	41.4307	45.1606	-181.156	60.7407	30.0733	
49	0.408333	-197.609	90.218	35.6284	-181.486	113.343	32.4213	-156.081	120.094	33.738	-133.974	110.548	47.3996	-147.854	114.547	-1.08722	-137.783	132.428	-9.28799	-127.489	148.48	-16.8791	-125.33	104.436	12.1423	-108.722	120.453	8.52237	-86.4915	137.352	4.71191	-114.815	93.6291	31.513	-98.2591	109.465	29.454	-82.2353	121.464	29.2416	-116.599	81.0355	50.9044	-100.772	93.3715	54.1742	-81.137	98.2194	58.9767	-149.055	60.5152	36.5532	-170.269	48.0586	46.1568	-176.179	64.6219	26.8046	
50	0.416667	-198.565	83.5284	35.0197	-183.92	111.686	21.2521	-160.691	119.912	21.2122	-135.256	117.834	33.2621	-159.399	105.175	-12.5868	-146.172	121.272	-28.6131	-142.815	136.376	-41.949	-130.56	103.108	-2.35425	-115.643	119.603	-13.4544	-99.7243	135.754	-21.4049	-119.193	97.4827	16.156	-100.893	114.994	10.5765	-87.9052	131.683	3.26454	-110.784	93.4166	40.0833	-99.3445	102.964	41.4883	-85.066	112.747	36.6159	-146.351	62.8251	33.6151	-159.325	48.2311	45.8562	-172.047	61.2298	24.0758	
51	0.425	-198.942	76.5821	31.4668	-189.757	105.078	11.6212	-164.708	111.772	8.73317	-137.194	111.023	19.9656	-163.332	89.9862	-24.9498	-158.17	102.478	-43.3177	-151.945	115.172	-62.698	-137.413	91.7199	-16.0074	-128.274	104.247	-31.8042	-108.443	123.742	-47.9511	-124.291	92.3075	0.0265013	-110.415	107.853	-11.6311	-97.4996	121.137	-18.043	-113.163	90.7099	28.7877	-100.146	106.18	21.4381	-89.3597	117.408	14.0981	-145.922	61.1352	27.1764	-155.084	47.5393	47.2146	-173.029	53.8087	20.5172	
52	0.433333	-196.865	65.436	27.592	-193.832	88.2265	5.85497	-165.314	97.8665	-7.20467	-142.956	98.8561	6.26064	-167.917	68.3119	-29.6368	-164.935	76.0067	-50.4629	-160.803	84.1325	-72.9979	-140.341	73.6078	-27.1762	-135.596	81.3573	-44.1393	-124.172	94.7144	-65.6185	-127.354	78.0016	-5.55596	-118.133	89.4527	-25.0323	-105.417	101.253	-38.6767	-116.982	84.0597	16.3844	-105.279	97.3461	5.38009	-89.918	107.087	-3.02361	-147.892	54.294	23.8462	-155.264	41.2949	49.4929	-174.246	43.692	19.8454	
53	0.441667	-204.206	57.4112	28.4132	-195.479	73.1751	-3.17158	-171.38	79.9005	-15.4796	-149.437	82.168	-4.54482	-176.144	44.2032	-29.5797	-174.331	46.4131	-53.2318	-173.132	46.7606	-72.6639	-152.041	48.2919	-31.5727	-141.668	52.1775	-51.8174	-130.271	57.3794	-72.3123	-136.911	56.4408	-16.0333	-124.799	63.6334	-31.392	-116.695	67.8877	-48.7384	-124.11	66.7477	5.33446	-113.073	76.479	-8.33388	-99.7564	82.0786	-18.6979	-150.822	41.0238	28.8546	-160.064	36.5045	49.5299	-180.479	32.3194	23.3588	
54	0.45	-207.22	47.4035	25.4247	-200.67	57.3021	-2.96985	-177.289	58.0386	-18.9061	-153.94	60.8149	-10.6668	-184.061	18.483	-24.3167	-182.688	11.9625	-49.1098	-181.844	7.75919	-65.8174	-156.427	21.0233	-23.4802	-150.735	16.8759	-48.0906	-140.651	12.3443	-69.7846	-140.917	32.6298	-11.5889	-128.851	31.1188	-33.1268	-124.084	29.4203	-50.9243	-128.036	46.1317	0.25055	-118.531	49.4935	-13.6689	-107.653	51.5444	-28.8985	-156.419	29.3421	29.9138	-163.919	34.3035	54.7699	-186.938	24.4865	31.4837	
55	0.458333	-210.816	41.7016	29.5002	-205.293	42.6982	-4.37316	-183.749	37.8654	-15.1704	-156.331	38.264	-13.9957	-195.771	-1.18278	-12.2262	-195.802	-12.4302	-34.9017	-196.046	-23.3572	-53.4508	-172.533	-4.67115	-14.0547	-167.243	-16.9793	-35.3096	-156.242	-25.6069	-52.2715	-156.656	6.28176	-4.51105	-143.179	-4.70251	-27.1601	-138.47	-10.8475	-42.5124	-137.117	20.9173	3.99515	-130.95	17.6826	-11.2679	-115.164	14.7128	-29.4829	-168.577	17.8957	34.2042	-173.903	25.0208	55.949	-195.237	15.7091	42.1081	
56	0.466667	-217.822	40.4399	32.0035	-212.947	37.2534	-1.14096	-193.882	24.2844	-15.0062	-168.262	18.4296	-11.9175	-217.832	-10.9519	-2.68394	-221.422	-23.1142	-21.328	-224.599	-35.0359	-37.7721	-194.516	-21.9237	-2.49929	-191.376	-37.9946	-20.9922	-185.314	-54.0688	-38.9158	-175.583	-12.6993	5.98244	-168.698	-31.5442	-14.0288	-168.744	-43.6912	-31.0615	-157.129	-1.81071	12.8478	-149.873	-11.5827	-1.95551	-138.211	-22.5947	-19.0693	-177.972	3.61308	39.1058	-180.631	18.5384	65.0349	-208.485	13.6547	44.8251	
57	0.475	-217.408	49.1006	39.3683	-217.721	42.407	6.60639	-203.863	20.6378	-5.29577	-185.296	8.60329	-2.83922	-240.824	-3.499	3.37141	-246.621	-16.9318	-12.7591	-255.766	-27.5431	-30.4087	-221.967	-21.6563	7.99246	-226.649	-36.4918	-6.07529	-230.413	-57.6724	-27.6891	-203.799	-23.0394	12.0864	-207.378	-39.6799	-1.97425	-209.427	-51.3486	-16.1646	-178.643	-16.8548	19.4574	-174.641	-33.0894	5.01014	-172.836	-46.4359	-6.76889	-194.253	2.42909	45.5033	-195.732	16.2747	67.4525	-218.525	19.2258	53.5699	
58	0.483333	-217.26	61.2501	42.1769	-219.403	52.4272	9.70145	-216.185	32.3986	-4.18244	-202.008	8.34414	-1.47624	-256.191	19.5664	10.1166	-268.812	10.4955	-6.93812	-283.472	1.60005	-27.7434	-245.688	-3.14474	12.5433	-261.94	-18.4691	-5.86748	-273.844	-32.9178	-22.7562	-228.154	-11.3588	16.84	-240.339	-27.7103	0.992321	-249.389	-36.6087	-11.5252	-204.894	-17.6351	21.1307	-210.669	-30.6281	8.41211	-214.788	-47.2162	-6.17955	-215.4	7.81515	45.2381	-203.053	17.4694	69.4146	-227.322	28.5415	55.8091	
59	0.491667	-209.42	72.2357	45.589	-215.466	67.6477	11.7387	-220.015	48.0738	-3.28262	-214.876	22.3	-0.447268	-266.095	53.2096	9.03612	-280.726	54.1028	-8.8479	-290.502	50.1637	-24.0893	-264.204	24.6859	10.7334	-280.458	21.8078	-2.84485	-296.597	10.7667	-21.2863	-250.597	9.89281	13.5387	-267.749	3.81892	-1.57942	-282.213	-5.34809	-15.3503	-227.374	-1.50138	18.4065	-240.9	-16.1017	3.34489	-249.733	-23.0891	-7.27447	-224.045	17.2434	47.414	-213.749	21.3322	68.2514	-232.435	47.605	57.4059	
